# xmcd CD database file
#
# Track frame offsets:
#	150
#	12895
#	26125
#	40482
#	53957
#	66925
#	78142
#	89880
#	101762
#	116807
#	132782
#	148150
#	162550
#	177180
#	193030
#	208097
#	223345
#	238107
#	251172
#	265565
#
# Disc length: 3716 seconds
#
# Revision: 1
# Processed by: cddbd v1.5.2PL0 Copyright (c) Steve Scherf et al.
# Submitted via: CDex 1.51
#
DISCID=370e8214
DTITLE=Lee Morse - A Musical Portrait
DYEAR=1996
DGENRE=Jazz
TTITLE0=Want A Little Lovin'
TTITLE1=He's Still My Baby
TTITLE2=Side By Side
TTITLE3=Old Fashioned Romance
TTITLE4=Be Sweet To Me
TTITLE5=Keep Sweeping The Cobwebs Off The Moon
TTITLE6=Don't Keep Me In The Dark Bright Eyes
TTITLE7=Miss You
TTITLE8=Blue, Turning Grey Over You
TTITLE9='Tain't No Sin To Dance Around In Your Bones
TTITLE10=Nobody Cares If I'm Blue
TTITLE11=I Still Get A Thrill Thinking Of You
TTITLE12=Walking My Baby Back Home
TTITLE13=By My Side
TTITLE14=I'm An Unemployed Sweetheart
TTITLE15=It's The Girls
TTITLE16=Something In The Night
TTITLE17=When I Lost You
TTITLE18=Careless Love
TTITLE19=Don't Even Change A Picture On The Wall
EXTD=YEAR: 1996
EXTT0=
EXTT1=
EXTT2=
EXTT3=
EXTT4=
EXTT5=
EXTT6=
EXTT7=
EXTT8=
EXTT9=
EXTT10=
EXTT11=
EXTT12=
EXTT13=
EXTT14=
EXTT15=
EXTT16=
EXTT17=
EXTT18=
EXTT19=
PLAYORDER=
